<svg width="0" height="0" class="hidden"><symbol fill="none" xmlns="http://www.w3.org/2000/svg" viewBox="0 0 129 20" id="willberries"><path d="M6.105 19L2.145 4.176.398 4V1.937h6.868V4l-1.84.27 2.004 8.296.363 1.524h.07l.434-1.524 3.375-10.629h2.52l3.503 10.922.41 1.348h.07l.352-1.348 2.075-8.59L18.656 4V1.937h6.739V4l-1.63.176L19.759 19h-3.094L13.43 9.027l-.41-1.406h-.07l-.458 1.453L9.222 19H6.106zm20.333 0v-2.05l1.652-.352V8.734l-1.828-.351V6.32h5.25v10.278l1.64.351V19h-6.715zm1.535-15.363V.719h3.539v2.918h-3.54zM34.113 19v-2.05l1.653-.352V3.133l-1.828-.352V.72h5.25v15.879l1.652.351V19h-6.727zm7.664 0v-2.05l1.653-.352V3.133l-1.828-.352V.72h5.25v15.879l1.652.351V19h-6.727zm15.282.246c-.79 0-1.461-.152-2.016-.457a3.958 3.958 0 01-1.395-1.348L53.402 19H50.45V3.133l-1.816-.352V.72h5.226v6.949a3.79 3.79 0 011.348-1.172c.54-.273 1.164-.41 1.875-.41 1.54 0 2.723.61 3.55 1.828.837 1.211 1.255 2.828 1.255 4.852v.246c0 1.89-.418 3.402-1.254 4.535-.836 1.133-2.028 1.7-3.574 1.7zm-1.043-2.66c.875 0 1.504-.309 1.886-.926.383-.625.575-1.508.575-2.648v-.246c0-1.235-.196-2.211-.586-2.93-.383-.727-.996-1.09-1.84-1.09-.516 0-.957.121-1.324.363-.368.243-.657.57-.868.985v5.297c.477.796 1.196 1.195 2.157 1.195zm13.699 2.66c-1.219 0-2.281-.265-3.188-.797a5.612 5.612 0 01-2.097-2.215c-.493-.937-.739-2.007-.739-3.21v-.47c0-1.257.235-2.37.703-3.34.47-.976 1.13-1.741 1.981-2.296.86-.563 1.871-.84 3.035-.832 1.711 0 3.02.504 3.926 1.512.906 1 1.36 2.406 1.36 4.218v1.864h-7.454l-.023.07c.062.836.34 1.523.832 2.063.492.539 1.191.808 2.097.808.625 0 1.208-.078 1.746-.234a6.884 6.884 0 001.594-.715l.926 2.11c-.523.421-1.183.773-1.98 1.054-.79.273-1.696.41-2.72.41zm-2.45-7.828h4.231v-.305c0-.765-.16-1.37-.48-1.816-.313-.453-.829-.68-1.547-.68-.688 0-1.211.262-1.57.785-.36.516-.583 1.168-.668 1.957l.035.059zM76.535 19v-2.05l1.64-.352V8.734l-1.816-.351V6.32h5.004l.13 1.57.023.282c.625-1.39 1.562-2.086 2.812-2.086.203 0 .422.016.656.047.243.031.461.078.657.14l-.364 3.153-1.699-.094c-.484-.023-.879.059-1.184.246a2.715 2.715 0 00-.796.809v6.21l1.64.352V19h-6.703zm10.383 0v-2.05l1.64-.352V8.734l-1.816-.351V6.32h5.004l.129 1.57.023.282c.625-1.39 1.563-2.086 2.813-2.086.203 0 .422.016.656.047.242.031.461.078.656.14l-.363 3.153-1.7-.094c-.483-.023-.878.059-1.183.246a2.715 2.715 0 00-.796.809v6.21l1.64.352V19h-6.703zm10.184 0v-2.05l1.652-.352V8.734l-1.828-.351V6.32h5.25v10.278l1.64.351V19h-6.714zm1.535-15.363V.719h3.539v2.918h-3.54zm12.398 15.609c-1.219 0-2.281-.265-3.187-.797a5.609 5.609 0 01-2.098-2.215c-.492-.937-.738-2.007-.738-3.21v-.47c0-1.257.234-2.37.703-3.34.469-.976 1.129-1.741 1.98-2.296.86-.563 1.871-.84 3.035-.832 1.711 0 3.02.504 3.926 1.512.906 1 1.36 2.406 1.36 4.218v1.864h-7.454l-.023.07c.063.836.34 1.523.832 2.063.492.539 1.191.808 2.098.808.625 0 1.207-.078 1.746-.234a6.891 6.891 0 001.594-.715l.925 2.11c-.523.421-1.183.773-1.98 1.054-.789.273-1.695.41-2.719.41zm-2.449-7.828h4.23v-.305c0-.765-.16-1.37-.48-1.816-.313-.453-.828-.68-1.547-.68-.687 0-1.211.262-1.57.785-.36.516-.582 1.168-.668 1.957l.035.059zm14.449 7.828c-.945 0-1.828-.09-2.648-.27a12.108 12.108 0 01-2.344-.773l-.035-3.586h2.379l.457 1.828c.265.133.554.239.867.317.32.078.684.117 1.09.117.765 0 1.304-.125 1.617-.375.312-.25.469-.563.469-.938 0-.351-.168-.66-.504-.925-.336-.274-.996-.512-1.981-.715-1.507-.313-2.617-.797-3.328-1.453-.703-.657-1.054-1.496-1.054-2.52 0-.695.175-1.336.527-1.922.359-.586.902-1.05 1.629-1.394.734-.352 1.672-.528 2.812-.528.953 0 1.824.094 2.614.282.796.18 1.464.418 2.003.714l.036 3.47h-2.368l-.363-1.665c-.453-.312-1.023-.469-1.711-.469-.594 0-1.054.125-1.383.375-.32.243-.48.551-.48.926 0 .328.141.625.422.89.289.259.918.497 1.887.716 1.57.359 2.714.84 3.433 1.441.719.594 1.078 1.43 1.078 2.508 0 1.18-.429 2.133-1.289 2.86-.851.726-2.129 1.09-3.832 1.09z" fill="#262D33"/></symbol><symbol xmlns="http://www.w3.org/2000/svg" viewBox="0 0 60 60" id="arrow"><path fill-rule="evenodd" clip-rule="evenodd" d="M30 60c16.569 0 30-13.431 30-30C60 13.431 46.569 0 30 0 13.431 0 0 13.431 0 30c0 16.569 13.431 30 30 30zm-4.695-30l7.415 7.378a.947.947 0 010 1.344.958.958 0 01-1.35 0l-8.09-8.05a.947.947 0 010-1.344l8.09-8.05a.958.958 0 011.35 0 .947.947 0 010 1.344L25.305 30z"/></symbol><symbol xmlns="http://www.w3.org/2000/svg" viewBox="0 0 20 20" id="facebock"><path fill-rule="evenodd" clip-rule="evenodd" d="M14.623 1.004L12.225 1C9.53 1 7.789 2.739 7.789 5.43v2.042H5.377A.372.372 0 005 7.84v2.96c0 .203.169.367.377.367H7.79v7.467c0 .203.169.367.377.367h3.146a.372.372 0 00.378-.367v-7.467h2.82a.372.372 0 00.377-.367V7.84c0-.097-.04-.19-.11-.26a.383.383 0 00-.267-.107h-2.82V5.741c0-.832.203-1.255 1.317-1.255h1.616A.372.372 0 0015 4.119V1.37a.372.372 0 00-.377-.367z"/></symbol><symbol xmlns="http://www.w3.org/2000/svg" viewBox="0 0 20 20" id="instagram"><path fill-rule="evenodd" clip-rule="evenodd" d="M10 1.5c2.309 0 2.598.01 3.505.051.904.041 1.522.185 2.063.395a4.166 4.166 0 011.505.98c.473.473.764.947.98 1.506.21.54.355 1.159.396 2.063.041.907.051 1.197.051 3.505 0 2.309-.01 2.598-.051 3.505-.041.904-.185 1.522-.395 2.063a4.167 4.167 0 01-.98 1.505 4.167 4.167 0 01-1.506.98c-.54.21-1.159.355-2.063.396-.907.041-1.197.051-3.505.051s-2.598-.01-3.505-.051c-.904-.041-1.522-.185-2.063-.395a4.167 4.167 0 01-1.505-.98 4.166 4.166 0 01-.98-1.506c-.21-.54-.355-1.159-.396-2.063C1.51 12.598 1.5 12.308 1.5 10s.01-2.598.051-3.505c.041-.904.185-1.522.395-2.063a4.166 4.166 0 01.98-1.505 4.166 4.166 0 011.506-.98c.54-.21 1.159-.355 2.063-.396C7.402 1.51 7.692 1.5 10 1.5zm-.003 11.33a2.833 2.833 0 100-5.665 2.833 2.833 0 000 5.665zm0-7.196a4.363 4.363 0 110 8.727 4.363 4.363 0 010-8.727zm5.859-.262a1.039 1.039 0 11-2.078 0 1.039 1.039 0 012.078 0z"/></symbol><symbol xmlns="http://www.w3.org/2000/svg" viewBox="0 0 20 20" id="twitter"><path fill-rule="evenodd" clip-rule="evenodd" d="M18.979 4.363a.088.088 0 00-.105-.025 7.151 7.151 0 01-1.687.517 3.777 3.777 0 001.317-1.867.09.09 0 00-.03-.098.089.089 0 00-.101-.008 7.177 7.177 0 01-2.245.875 3.745 3.745 0 00-2.7-1.157c-2.066 0-3.746 1.696-3.746 3.78 0 .253.024.503.072.745A10.298 10.298 0 012.4 3.31a.09.09 0 00-.147.012 3.806 3.806 0 00-.507 1.9 3.79 3.79 0 001.41 2.958 3.557 3.557 0 01-1.307-.426.088.088 0 00-.088 0 .09.09 0 00-.045.077v.048a3.79 3.79 0 002.633 3.612 3.57 3.57 0 01-1.245-.018.09.09 0 00-.102.116A3.752 3.752 0 006.253 14.2a7.155 7.155 0 01-4.292 1.412c-.287 0-.577-.017-.861-.051a.09.09 0 00-.095.059.09.09 0 00.036.106A10.38 10.38 0 006.694 17.4c6.568 0 10.492-5.385 10.492-10.591 0-.145-.002-.29-.008-.433a7.51 7.51 0 001.807-1.905.091.091 0 00-.006-.108z"/></symbol></svg>